<svg version="1.1" viewBox="0.0 0.0 960.0 720.0" fill="none" stroke="none" stroke-linecap="square" stroke-miterlimit="10" xmlns:xlink="http://www.w3.org/1999/xlink" xmlns="http://www.w3.org/2000/svg"><clipPath id="p.0"><path d="m0 0l960.0 0l0 720.0l-960.0 0l0 -720.0z" clip-rule="nonzero"/></clipPath><g clip-path="url(#p.0)"><path fill="#000000" fill-opacity="0.0" d="m0 0l960.0 0l0 720.0l-960.0 0z" fill-rule="evenodd"/><path fill="#666666" d="m57.59055 145.36697l0 0c0 -59.27105 48.04868 -107.31973 107.31973 -107.31973l630.17944 0c28.462952 0 55.76013 11.306866 75.886536 31.433224c20.126343 20.12635 31.433167 47.423546 31.433167 75.886505l0 429.26602c0 59.271057 -48.048645 107.31976 -107.3197 107.31976l-630.17944 0l0 0c-59.27105 0 -107.31973 -48.048706 -107.31973 -107.31976z" fill-rule="evenodd"/><path fill="#000000" fill-opacity="0.0" d="m123.03937 143.08661l713.92126 0l0 433.82678l-713.92126 0z" fill-rule="evenodd"/><path fill="#ffffff" d="m216.63086 346.46625l-36.203125 14.5l36.203125 14.484375l0 4.421875l-40.8125 -16.609375l0 -4.609375l40.8125 -16.609375l0 4.421875zm42.233368 -2.40625q7.015625 0 12.671875 3.265625q5.65625 3.265625 8.875 9.03125q3.21875 5.75 3.21875 13.140625q0 7.40625 -3.21875 13.21875q-3.21875 5.796875 -8.875 9.015625q-5.65625 3.21875 -12.671875 3.21875q-6.6250153 0 -12.000015 -3.125q-5.375 -3.125 -8.359375 -8.6875l0 30.046875l-4.796875 0l0 -68.734375l4.609375 0l0 11.8125q2.984375 -5.765625 8.40625 -8.984375q5.421875 -3.21875 12.14064 -3.21875zm-0.28125 46.5625q5.75 0 10.359375 -2.6875q4.609375 -2.6875 7.25 -7.484375q2.640625 -4.796875 2.640625 -10.953125q0 -6.140625 -2.640625 -10.9375q-2.640625 -4.796875 -7.25 -7.484375q-4.609375 -2.6875 -10.359375 -2.6875q-5.7656403 0 -10.32814 2.6875q-4.5625 2.6875 -7.203125 7.484375q-2.640625 4.796875 -2.640625 10.9375q0 6.15625 2.640625 10.953125q2.640625 4.796875 7.203125 7.484375q4.5625 2.6875 10.32814 2.6875zm65.08121 -46.5625q7.015625 0 12.671875 3.21875q5.65625 3.21875 8.875 9.03125q3.21875 5.796875 3.21875 13.1875q0 7.40625 -3.21875 13.171875q-3.21875 5.75 -8.875 9.015625q-5.65625 3.265625 -12.671875 3.265625q-6.71875 0 -12.140625 -3.21875q-5.421875 -3.21875 -8.40625 -8.984375l0 11.8125l-4.609375 0l0 -71.234375l4.796875 0l0 32.546875q2.984375 -5.5625 8.359375 -8.6875q5.375 -3.125 12.0 -3.125zm-0.28125 46.5625q5.75 0 10.359375 -2.6875q4.609375 -2.6875 7.25 -7.484375q2.640625 -4.796875 2.640625 -10.953125q0 -6.140625 -2.640625 -10.9375q-2.640625 -4.796875 -7.25 -7.484375q-4.609375 -2.6875 -10.359375 -2.6875q-5.765625 0 -10.328125 2.6875q-4.5625 2.6875 -7.203125 7.484375q-2.640625 4.796875 -2.640625 10.9375q0 6.15625 2.640625 10.953125q2.640625 4.796875 7.203125 7.484375q4.5625 2.6875 10.328125 2.6875zm56.63922 -46.5625q9.3125 0 14.296875 4.765625q5.0 4.75 5.0 13.953125l0 31.78125l-4.609375 0l0 -8.921875q-2.40625 4.40625 -7.015625 6.859375q-4.609375 2.453125 -11.03125 2.453125q-8.359375 0 -13.21875 -3.9375q-4.84375 -3.9375 -4.84375 -10.375q0 -6.234375 4.46875 -10.125q4.46875 -3.890625 14.265625 -3.890625l17.171875 0l0 -4.03125q0 -7.0 -3.796875 -10.640625q-3.78125 -3.65625 -11.078125 -3.65625q-4.984375 0 -9.546875 1.734375q-4.5625 1.71875 -7.734375 4.59375l-2.390625 -3.453125q3.734375 -3.359375 9.015625 -5.234375q5.28125 -1.875 11.046875 -1.875zm-2.6875 46.953125q6.234375 0 10.59375 -2.875q4.375 -2.890625 6.578125 -8.359375l0 -9.40625l-17.078125 0q-7.390625 0 -10.703125 2.6875q-3.3125 2.6875 -3.3125 7.390625q0 4.890625 3.640625 7.734375q3.65625 2.828125 10.28125 2.828125zm41.749207 -46.5625l4.796875 0l0 50.109375l-4.796875 0l0 -50.109375zm2.40625 -12.1875q-1.640625 0 -2.796875 -1.109375q-1.140625 -1.109375 -1.140625 -2.734375q0 -1.640625 1.140625 -2.78125q1.15625 -1.15625 2.796875 -1.15625q1.625 0 2.78125 1.109375q1.15625 1.09375 1.15625 2.734375q0 1.625 -1.15625 2.78125q-1.15625 1.15625 -2.78125 1.15625zm22.64975 -8.9375l4.796875 0l0 71.234375l-4.796875 0l0 -71.234375zm67.39975 47.328125l-43.109375 0q0.1875 5.859375 2.96875 10.421875q2.796875 4.5625 7.546875 7.0625q4.75 2.484375 10.703125 2.484375q4.890625 0 9.0625 -1.765625q4.1875 -1.78125 6.96875 -5.234375l2.78125 3.15625q-3.265625 3.9375 -8.21875 6.0625q-4.9375 2.109375 -10.6875 2.109375q-7.484375 0 -13.34375 -3.265625q-5.859375 -3.265625 -9.171875 -9.015625q-3.3125 -5.765625 -3.3125 -13.171875q0 -7.296875 3.109375 -13.09375q3.125 -5.8125 8.59375 -9.078125q5.484375 -3.265625 12.296875 -3.265625q6.8125 0 12.234375 3.21875q5.4375 3.21875 8.546875 8.984375q3.125 5.75 3.125 13.046875l-0.09375 1.34375zm-23.8125 -22.359375q-5.28125 0 -9.515625 2.359375q-4.21875 2.34375 -6.765625 6.609375q-2.53125 4.265625 -2.921875 9.65625l38.40625 0q-0.296875 -5.390625 -2.890625 -9.609375q-2.578125 -4.21875 -6.8125 -6.609375q-4.21875 -2.40625 -9.5 -2.40625zm78.055115 -3.84375l-25.734375 56.921875q-2.875 6.625 -6.671875 9.40625q-3.796875 2.796875 -8.96875 2.796875q-3.46875 0 -6.5 -1.15625q-3.015625 -1.15625 -5.125 -3.359375l2.40625 -3.65625q3.828125 3.9375 9.3125 3.9375q3.640625 0 6.234375 -2.015625q2.59375 -2.015625 4.796875 -6.90625l2.6875 -6.046875l-22.5625 -49.921875l5.09375 0l20.0625 44.828125l20.0625 -44.828125l4.90625 0zm53.560486 -21.125l0 71.234375l-4.703125 0l0 -11.8125q-2.96875 5.859375 -8.359375 9.03125q-5.375 3.171875 -12.1875 3.171875q-7.0 0 -12.671875 -3.265625q-5.65625 -3.265625 -8.875 -9.015625q-3.21875 -5.765625 -3.21875 -13.171875q0 -7.390625 3.21875 -13.1875q3.21875 -5.8125 8.875 -9.03125q5.671875 -3.21875 12.671875 -3.21875q6.71875 0 12.046875 3.171875q5.328125 3.171875 8.40625 8.828125l0 -32.734375l4.796875 0zm-24.953125 67.296875q5.75 0 10.3125 -2.6875q4.5625 -2.6875 7.203125 -7.484375q2.640625 -4.796875 2.640625 -10.953125q0 -6.140625 -2.640625 -10.9375q-2.640625 -4.796875 -7.203125 -7.484375q-4.5625 -2.6875 -10.3125 -2.6875q-5.765625 0 -10.328125 2.6875q-4.5625 2.6875 -7.203125 7.484375q-2.640625 4.796875 -2.640625 10.9375q0 6.15625 2.640625 10.953125q2.640625 4.796875 7.203125 7.484375q4.5625 2.6875 10.328125 2.6875zm87.54999 -19.96875l-43.109375 0q0.1875 5.859375 2.96875 10.421875q2.796875 4.5625 7.546875 7.0625q4.75 2.484375 10.703125 2.484375q4.890625 0 9.0625 -1.765625q4.1875 -1.78125 6.96875 -5.234375l2.78125 3.15625q-3.265625 3.9375 -8.21875 6.0625q-4.9375 2.109375 -10.6875 2.109375q-7.484375 0 -13.34375 -3.265625q-5.859375 -3.265625 -9.171875 -9.015625q-3.3125 -5.765625 -3.3125 -13.171875q0 -7.296875 3.109375 -13.09375q3.125 -5.8125 8.59375 -9.078125q5.484375 -3.265625 12.296875 -3.265625q6.8125 0 12.234375 3.21875q5.4375 3.21875 8.546875 8.984375q3.125 5.75 3.125 13.046875l-0.09375 1.34375zm-23.8125 -22.359375q-5.28125 0 -9.515625 2.359375q-4.21875 2.34375 -6.765625 6.609375q-2.53125 4.265625 -2.921875 9.65625l38.40625 0q-0.296875 -5.390625 -2.890625 -9.609375q-2.578125 -4.21875 -6.8125 -6.609375q-4.21875 -2.40625 -9.5 -2.40625zm78.055115 -3.84375l-22.65625 50.109375l-4.90625 0l-22.5625 -50.109375l5.09375 0l19.96875 44.828125l20.15625 -44.828125l4.90625 0zm48.00049 14.203125l0 4.609375l-40.8125 16.609375l0 -4.421875l36.203125 -14.484375l-36.203125 -14.5l0 -4.421875l40.8125 16.609375z" fill-rule="nonzero"/></g></svg>