<svg version="1.1" viewBox="0.0 0.0 742.0446194225722 531.8188976377953" fill="none" stroke="none" stroke-linecap="square" stroke-miterlimit="10" xmlns:xlink="http://www.w3.org/1999/xlink" xmlns="http://www.w3.org/2000/svg"><clipPath id="p.0"><path d="m0 0l742.0446 0l0 531.8189l-742.0446 0l0 -531.8189z" clip-rule="nonzero"/></clipPath><g clip-path="url(#p.0)"><path fill="#000000" fill-opacity="0.0" d="m0 0l742.0446 0l0 531.8189l-742.0446 0z" fill-rule="evenodd"/><path fill="#000000" fill-opacity="0.0" d="m46.013123 329.64435l650.01575 0l0 186.67719l-650.01575 0z" fill-rule="evenodd"/><path fill="#ff9900" d="m162.9787 366.88187l0 80.5625l-6.75 0l0 -80.5625l6.75 0zm27.625 0l0 5.859375l-61.921875 0l0 -5.859375l61.921875 0zm41.65706 69.828125l0 -30.875q0 -4.265625 -1.765625 -7.359375q-1.765625 -3.109375 -5.203125 -4.765625q-3.421875 -1.65625 -8.46875 -1.65625q-4.640625 0 -8.265625 1.640625q-3.625 1.625 -5.703125 4.375q-2.078125 2.734375 -2.078125 6.046875l-6.578125 -0.0625q0 -3.375 1.625 -6.515625q1.640625 -3.15625 4.671875 -5.640625q3.046875 -2.5 7.28125 -3.96875q4.234375 -1.46875 9.375 -1.46875q6.375 0 11.265625 2.15625q4.90625 2.15625 7.6875 6.484375q2.796875 4.3125 2.796875 10.84375l0 28.9375q0 3.09375 0.46875 6.421875q0.484375 3.3125 1.359375 5.421875l0 0.71875l-7.078125 0q-0.671875 -1.984375 -1.03125 -5.0q-0.359375 -3.03125 -0.359375 -5.734375zm1.546875 -24.125l0.125 5.09375l-12.953125 0q-5.09375 0 -9.109375 0.921875q-4.0 0.90625 -6.78125 2.625q-2.765625 1.703125 -4.234375 4.171875q-1.453125 2.453125 -1.453125 5.5625q0 3.203125 1.59375 5.859375q1.609375 2.65625 4.65625 4.203125q3.046875 1.546875 7.1875 1.546875q5.484375 0 9.71875 -2.015625q4.234375 -2.015625 7.0 -5.328125q2.765625 -3.328125 3.703125 -7.265625l2.875 3.828125q-0.71875 2.703125 -2.625 5.640625q-1.90625 2.9375 -4.921875 5.453125q-3.015625 2.515625 -7.140625 4.09375q-4.125 1.578125 -9.375 1.578125q-5.8125 0 -10.1875 -2.234375q-4.375 -2.25 -6.75 -6.09375q-2.375 -3.84375 -2.375 -8.71875q0 -4.375 1.875 -7.890625q1.890625 -3.515625 5.421875 -5.96875q3.546875 -2.46875 8.609375 -3.765625q5.0625 -1.296875 11.375 -1.296875l13.765625 0zm29.383926 -12.234375l0 47.09375l-6.578125 0l0 -59.875l6.3125 0l0.265625 12.78125zm-1.4375 13.453125l-2.921875 -1.65625q0.265625 -5.3125 2.09375 -9.953125q1.828125 -4.65625 4.953125 -8.203125q3.125 -3.546875 7.390625 -5.53125q4.265625 -2.0 9.40625 -2.0q4.484375 0 8.015625 1.21875q3.546875 1.21875 6.0 3.859375q2.46875 2.625 3.765625 6.796875q1.3125 4.171875 1.3125 10.09375l0 39.015625l-6.640625 0l0 -39.0625q0 -6.140625 -1.71875 -9.65625q-1.71875 -3.515625 -4.875 -5.0q-3.140625 -1.5 -7.46875 -1.5q-4.75 0 -8.328125 2.078125q-3.5625 2.0625 -5.96875 5.359375q-2.40625 3.296875 -3.6875 7.03125q-1.265625 3.734375 -1.328125 7.109375zm96.573944 -26.234375l6.140625 0l0 58.828125q0 7.75 -2.96875 13.359375q-2.953125 5.609375 -8.359375 8.5625q-5.390625 2.96875 -12.640625 2.96875q-3.765625 0 -7.671875 -1.109375q-3.890625 -1.09375 -7.359375 -3.390625q-3.453125 -2.296875 -5.875 -5.734375l3.75 -4.03125q3.609375 4.484375 7.75 6.546875q4.15625 2.078125 8.96875 2.078125q5.703125 0 9.65625 -2.265625q3.953125 -2.265625 6.03125 -6.53125q2.078125 -4.265625 2.078125 -10.234375l0 -45.875l0.5 -13.171875zm-42.0625 30.546875l0 -1.15625q0 -6.984375 1.578125 -12.59375q1.578125 -5.625 4.5625 -9.625q2.984375 -4.015625 7.265625 -6.140625q4.296875 -2.140625 9.71875 -2.140625q5.265625 0 9.296875 1.71875q4.046875 1.71875 6.953125 4.9375q2.90625 3.203125 4.703125 7.625q1.796875 4.421875 2.625 9.84375l0 14.78125q-0.65625 5.03125 -2.4375 9.296875q-1.765625 4.265625 -4.703125 7.359375q-2.9375 3.09375 -7.0625 4.8125q-4.109375 1.71875 -9.484375 1.71875q-5.359375 0 -9.625 -2.234375q-4.265625 -2.25 -7.25 -6.3125q-2.984375 -4.078125 -4.5625 -9.625q-1.578125 -5.5625 -1.578125 -12.265625zm6.640625 -1.15625l0 1.15625q0 5.203125 1.046875 9.6875q1.0625 4.484375 3.21875 7.828125q2.15625 3.34375 5.46875 5.203125q3.328125 1.84375 7.859375 1.84375q5.703125 0 9.546875 -2.171875q3.84375 -2.1875 6.109375 -5.8125q2.28125 -3.625 3.328125 -7.953125l0 -17.140625q-0.609375 -2.9375 -1.859375 -5.984375q-1.234375 -3.046875 -3.421875 -5.609375q-2.1875 -2.578125 -5.515625 -4.15625q-3.3125 -1.578125 -8.078125 -1.578125q-4.59375 0 -7.9375 1.890625q-3.34375 1.875 -5.5 5.21875q-2.15625 3.34375 -3.21875 7.828125q-1.046875 4.484375 -1.046875 9.75zm82.12018 31.59375q-5.859375 0 -10.796875 -2.15625q-4.921875 -2.15625 -8.515625 -6.078125q-3.59375 -3.9375 -5.59375 -9.328125q-1.984375 -5.40625 -1.984375 -11.828125l0 -2.375q0 -6.921875 2.0625 -12.5q2.078125 -5.59375 5.640625 -9.609375q3.578125 -4.015625 8.203125 -6.109375q4.625 -2.109375 9.765625 -2.109375q5.703125 0 10.09375 2.03125q4.40625 2.015625 7.4375 5.703125q3.046875 3.671875 4.59375 8.6875q1.5625 5.0 1.5625 11.03125l0 4.03125l-45.328125 0l0 -5.6875l38.6875 0l0 -0.71875q-0.109375 -5.046875 -2.03125 -9.4375q-1.90625 -4.40625 -5.640625 -7.171875q-3.734375 -2.765625 -9.375 -2.765625q-4.265625 0 -7.75 1.78125q-3.484375 1.765625 -6.0 5.0625q-2.515625 3.28125 -3.90625 7.796875q-1.375 4.5 -1.375 9.984375l0 2.375q0 4.921875 1.484375 9.25q1.5 4.3125 4.203125 7.546875q2.71875 3.234375 6.484375 5.09375q3.765625 1.859375 8.359375 1.859375q5.25 0 9.375 -1.96875q4.125 -1.96875 7.390625 -6.234375l4.140625 3.21875q-1.984375 2.875 -4.875 5.28125q-2.875 2.40625 -6.921875 3.875q-4.03125 1.46875 -9.390625 1.46875zm41.991455 -51.078125l0 49.96875l-6.578125 0l0 -59.875l6.46875 0l0.109375 9.90625zm21.25 -10.34375l-0.21875 6.078125q-1.046875 -0.15625 -2.109375 -0.265625q-1.046875 -0.109375 -2.3125 -0.109375q-4.265625 0 -7.53125 1.578125q-3.265625 1.5625 -5.453125 4.359375q-2.171875 2.796875 -3.34375 6.515625q-1.15625 3.703125 -1.328125 8.015625l-2.4375 0.890625q0 -5.875 1.21875 -10.90625q1.21875 -5.03125 3.703125 -8.828125q2.5 -3.796875 6.34375 -5.890625q3.84375 -2.109375 9.109375 -2.109375q1.21875 0 2.453125 0.203125q1.25 0.1875 1.90625 0.46875zm17.775574 0.4375l0 59.875l-6.640625 0l0 -59.875l6.640625 0zm-7.8125 -17.3125q0 -1.890625 1.1875 -3.1875q1.203125 -1.296875 3.359375 -1.296875q2.09375 0 3.34375 1.296875q1.25 1.296875 1.25 3.1875q0 1.8125 -1.25 3.125q-1.25 1.296875 -3.34375 1.296875q-2.15625 0 -3.359375 -1.296875q-1.1875 -1.3125 -1.1875 -3.125zm32.42331 30.09375l0 47.09375l-6.578125 0l0 -59.875l6.3125 0l0.265625 12.78125zm-1.4375 13.453125l-2.921875 -1.65625q0.265625 -5.3125 2.09375 -9.953125q1.828125 -4.65625 4.9531555 -8.203125q3.125 -3.546875 7.390625 -5.53125q4.265625 -2.0 9.40625 -2.0q4.484375 0 8.015625 1.21875q3.546875 1.21875 6.0 3.859375q2.46875 2.625 3.765625 6.796875q1.3125 4.171875 1.3125 10.09375l0 39.015625l-6.640625 0l0 -39.0625q0 -6.140625 -1.71875 -9.65625q-1.71875 -3.515625 -4.875 -5.0q-3.140625 -1.5 -7.46875 -1.5q-4.75 0 -8.328125 2.078125q-3.5625 2.0625 -5.96875 5.359375q-2.4062805 3.296875 -3.6875305 7.03125q-1.265625 3.734375 -1.328125 7.109375zm80.355194 34.75q-5.859375 0 -10.796875 -2.15625q-4.921875 -2.15625 -8.515625 -6.078125q-3.59375 -3.9375 -5.59375 -9.328125q-1.984375 -5.40625 -1.984375 -11.828125l0 -2.375q0 -6.921875 2.0625 -12.5q2.078125 -5.59375 5.640625 -9.609375q3.578125 -4.015625 8.203125 -6.109375q4.625 -2.109375 9.765625 -2.109375q5.703125 0 10.09375 2.03125q4.40625 2.015625 7.4375 5.703125q3.046875 3.671875 4.59375 8.6875q1.5625 5.0 1.5625 11.03125l0 4.03125l-45.328125 0l0 -5.6875l38.6875 0l0 -0.71875q-0.109375 -5.046875 -2.03125 -9.4375q-1.90625 -4.40625 -5.640625 -7.171875q-3.734375 -2.765625 -9.375 -2.765625q-4.265625 0 -7.75 1.78125q-3.484375 1.765625 -6.0 5.0625q-2.515625 3.28125 -3.90625 7.796875q-1.375 4.5 -1.375 9.984375l0 2.375q0 4.921875 1.484375 9.25q1.5 4.3125 4.203125 7.546875q2.71875 3.234375 6.484375 5.09375q3.765625 1.859375 8.359375 1.859375q5.25 0 9.375 -1.96875q4.125 -1.96875 7.390625 -6.234375l4.140625 3.21875q-1.984375 2.875 -4.875 5.28125q-2.875 2.40625 -6.921875 3.875q-4.03125 1.46875 -9.390625 1.46875z" fill-rule="nonzero"/><path fill="#dde130" d="m188.51706 169.67061l0 0c0 -85.14753 81.70981 -154.17323 182.50394 -154.17323l0 0c100.79413 0 182.50397 69.0257 182.50397 154.17323l0 0c0 85.14752 -81.70984 154.17323 -182.50397 154.17323l0 0c-100.79413 0 -182.50394 -69.02571 -182.50394 -154.17323z" fill-rule="evenodd"/><path stroke="#ff9900" stroke-width="4.0" stroke-linejoin="round" stroke-linecap="butt" d="m188.51706 169.67061l0 0c0 -85.14753 81.70981 -154.17323 182.50394 -154.17323l0 0c100.79413 0 182.50397 69.0257 182.50397 154.17323l0 0c0 85.14752 -81.70984 154.17323 -182.50397 154.17323l0 0c-100.79413 0 -182.50394 -69.02571 -182.50394 -154.17323z" fill-rule="evenodd"/><path fill="#ffffff" d="m345.8084 169.67061l0 0c0 -13.820175 11.288055 -25.02362 25.212585 -25.02362l0 0c6.686798 0 13.099731 2.6363983 17.828003 7.329239c4.7282715 4.6928406 7.3845825 11.0576935 7.3845825 17.694382l0 0c0 13.82016 -11.288055 25.02362 -25.212585 25.02362l0 0c-13.92453 0 -25.212585 -11.203461 -25.212585 -25.02362z" fill-rule="evenodd"/><path stroke="#ffffff" stroke-width="1.0" stroke-linejoin="round" stroke-linecap="butt" d="m345.8084 169.67061l0 0c0 -13.820175 11.288055 -25.02362 25.212585 -25.02362l0 0c6.686798 0 13.099731 2.6363983 17.828003 7.329239c4.7282715 4.6928406 7.3845825 11.0576935 7.3845825 17.694382l0 0c0 13.82016 -11.288055 25.02362 -25.212585 25.02362l0 0c-13.92453 0 -25.212585 -11.203461 -25.212585 -25.02362z" fill-rule="evenodd"/><path fill="#000000" fill-opacity="0.0" d="m246.8084 275.9042l249.82677 -211.59055" fill-rule="evenodd"/><path stroke="#ffffff" stroke-width="8.0" stroke-linejoin="round" stroke-linecap="butt" d="m246.8084 275.9042l249.82677 -211.59055" fill-rule="evenodd"/><path fill="#000000" fill-opacity="0.0" d="m244.76369 63.663918l251.62206 211.55905" fill-rule="evenodd"/><path stroke="#ffffff" stroke-width="8.0" stroke-linejoin="round" stroke-linecap="butt" d="m244.76369 63.663918l251.62206 211.55905" fill-rule="evenodd"/><path fill="#000000" fill-opacity="0.0" d="m371.02625 19.74672l0.47244263 299.74805" fill-rule="evenodd"/><path stroke="#ffffff" stroke-width="8.0" stroke-linejoin="round" stroke-linecap="butt" d="m371.02625 19.74672l0.47244263 299.74805" fill-rule="evenodd"/><path fill="#000000" fill-opacity="0.0" d="m193.08398 170.24016l356.12598 -0.1889801" fill-rule="evenodd"/><path stroke="#ffffff" stroke-width="8.0" stroke-linejoin="round" stroke-linecap="butt" d="m193.08398 170.24016l356.12598 -0.1889801" fill-rule="evenodd"/></g></svg>